<?xml version="1.0" encoding="utf-8"?>
<!-- Generator: Adobe Illustrator 25.4.1, SVG Export Plug-In . SVG Version: 6.00 Build 0)  -->
<svg version="1.1" id="Layer_1" xmlns="http://www.w3.org/2000/svg" xmlns:xlink="http://www.w3.org/1999/xlink" x="0px" y="0px"
	 viewBox="0 0 187.3 62.3" style="enable-background:new 0 0 187.3 62.3;" xml:space="preserve">
<style type="text/css">
	.st0{fill:#010101;}
</style>
<g>
	<path d="M109.5,8.5l5,13.1h0.1l5.1-13.1h4l1.1,20.1h-3.5l-0.8-13.8h-0.1l-4.7,11.6h-2.8l-4.5-11.5h-0.1l-0.8,13.7h-3.5l1.1-20.1
		H109.5z"/>
	<path d="M39.9,23.8l3.6,9.5h0l3.7-9.5h2.9L51,38.3h-2.5l-0.5-10h0l-3.4,8.4h-2l-3.3-8.3h0l-0.5,9.9h-2.5l0.8-14.5H39.9z"/>
	<path d="M127.6,21c0-6.3,3.9-8,7-8c2.2,0,6.6,0.7,6.6,7.6c0,5.8-3.1,8.5-7.1,8.5C130.1,29.1,127.6,26.5,127.6,21z M137.5,21.1
		c0-3.4-0.8-5.5-3.1-5.5c-2.2,0-3.2,2.1-3.2,5c0,2.8,0.4,5.8,3.1,5.8C136.6,26.4,137.5,24.2,137.5,21.1z"/>
	<path d="M144,13.4h3l0.3,1.9c1.1-1.5,2.7-2.4,4.7-2.4c3.1,0,4.8,1.7,4.8,5.3v10.4h-3.6V19c0-1.8-0.3-3.3-2.3-3.3
		c-1.8,0-3.1,1.5-3.1,3v9.9h-3.6V16L144,13.4z"/>
	<path d="M159.8,21.3c0-4.4,2.6-8.4,7.4-8.4c3,0,4.8,1.5,4.8,4.2c0,4.7-5.2,5.4-8.5,5.4c0.2,1.9,1.2,3.7,3.8,3.7
		c1.8,0,3.1-0.8,3.8-1.3l1.1,2.4c-0.5,0.4-2.5,1.7-5.3,1.7C161.9,29.1,159.8,25.8,159.8,21.3z M168.8,17.3c0-1.1-0.7-1.8-1.8-1.8
		c-2.4,0-3.5,2.2-3.6,4.4C165,20,168.8,19.6,168.8,17.3z"/>
	<path d="M175.7,32.6c0-2.3,1.5-4,3.1-5.1c-2.5-0.4-4-1.7-4-4.9v-9.2h3.6v8.8c0,1.8,0.2,3.2,2.6,3.2c1.4,0,2.8-1.1,2.8-2.9v-9.1h3.6
		v13.3c0,1.1-0.1,3.2-0.3,4.2c-0.6,3.7-2.7,5.7-6.5,5.7C177.3,36.6,175.7,35.1,175.7,32.6z M183.8,29.7v-2.8
		c-2.7,1.2-4.9,2.7-4.9,5.2c0,1.3,0.8,2,2.1,2C183,34,183.8,32.3,183.8,29.7z"/>
	<path d="M54.8,23.8c2.5,0,4.7,0.7,4.7,3.5c0,1.6-0.9,2.6-2.2,3.1c1.8,0.4,2.9,1.5,2.9,3.5c0,2.8-2,4.4-5.6,4.4h-4.8V23.8H54.8z
		 M56.8,27.7c0-1.6-1-1.9-2.5-1.9h-1.8v3.9h1.6C56,29.7,56.8,28.9,56.8,27.7z M57.4,33.9c0-1.5-1-2.3-2.7-2.3h-2.2v4.6h2.1
		C56.7,36.2,57.4,35.3,57.4,33.9z"/>
	<path d="M121.8,45.8c0-6.3,3.9-8,7-8c2.2,0,6.6,0.7,6.6,7.6c0,5.8-3.1,8.5-7.1,8.5C124.3,53.8,121.8,51.2,121.8,45.8z M131.7,45.9
		c0-3.4-0.8-5.5-3.1-5.5c-2.2,0-3.2,2.1-3.2,5c0,2.8,0.4,5.8,3.1,5.8C130.8,51.2,131.7,49,131.7,45.9z"/>
	<path d="M136.2,38.2h3.8l3,4.8l3.1-4.8h3.7l-4.9,7.3l5.2,7.9h-3.9l-3.3-5.2l-3.4,5.2h-3.9l5.3-7.9L136.2,38.2z"/>
</g>
<g>
	<g>
		<circle class="st0" cx="70.3" cy="22" r="2.5"/>
	</g>
	<g>
		<g>
			<path class="st0" d="M14.9,30.3c-0.2,0-0.4,0-0.6,0c-1,0-2.4,0-3.9-0.6c-2.4-1-4.2-2.9-5-5.1c-0.6-1.6-0.5-3.2,0.2-4.5
				c0.5-1,1.7-1.3,2.7-0.8c1,0.5,1.3,1.7,0.8,2.7c-0.2,0.3-0.1,0.7,0,1.2c0.3,0.9,1.2,2,2.8,2.7c0.7,0.3,1.6,0.3,2.3,0.3
				c0.6,0,1.1,0,1.6,0.1c1.1,0.3,1.7,1.4,1.4,2.5c-0.2,0.9-1,1.5-1.9,1.5C15.3,30.4,15.1,30.4,14.9,30.3z"/>
		</g>
		<g>
			<path class="st0" d="M1,25.3c-1-0.5-1.3-1.7-0.8-2.7S2,21.2,3,21.7c1.8,1,3.5,1.4,4.8,1.3c0.8-0.1,1.4-0.4,1.7-0.8
				c0.5-1,1.7-1.3,2.7-0.8c1,0.5,1.3,1.7,0.8,2.7c-0.9,1.6-2.6,2.7-4.8,2.9c-0.3,0-0.5,0-0.8,0C5.4,27.1,3.3,26.5,1,25.3z"/>
		</g>
		<g>
			<path class="st0" d="M10.1,25.1c-1-0.5-1.3-1.7-0.8-2.7c0,0,0,0,0,0c0,0-0.1-0.1-0.1-0.1c0,0-0.1,0-0.1,0c0,0,0,0,0,0
				c-0.5,1-1.7,1.3-2.7,0.8c-1-0.5-1.3-1.7-0.8-2.7c0-0.1,0.1-0.1,0.1-0.2c0.5-0.9,1.4-1.6,2.5-1.9c1-0.2,2.1-0.1,3,0.4
				c0.9,0.5,1.6,1.3,2,2.3c0.4,1,0.3,2.2-0.2,3.1c0,0.1-0.1,0.1-0.1,0.2c-0.4,0.7-1.1,1.1-1.8,1.1C10.7,25.3,10.4,25.3,10.1,25.1z"
				/>
		</g>
	</g>
	<g>
		<path class="st0" d="M55.2,11.7c-2.2-0.6-4.5-0.9-6.8-1c-1.1,0-2-1-1.9-2.1c0-1.1,1-2,2.1-1.9c2.6,0.1,5.2,0.5,7.7,1.1
			c1.1,0.3,1.7,1.4,1.4,2.5c-0.2,0.9-1,1.5-1.9,1.5C55.5,11.7,55.3,11.7,55.2,11.7z M37,10.3c-0.3-1.1,0.3-2.2,1.4-2.5
			c1.1-0.3,2.2-0.5,3.3-0.7c1.1-0.2,2.1,0.6,2.3,1.6c0.2,1.1-0.6,2.1-1.7,2.3c-1,0.2-2,0.4-2.9,0.6c-0.2,0-0.3,0.1-0.5,0.1
			C38.1,11.7,37.3,11.2,37,10.3z"/>
	</g>
	<g>
		<path class="st0" d="M25.1,60.3v-7.5c0-1.1-0.5-2.2-1.3-2.9C17,44.5,13.3,37.2,13.3,29.3c0-15.8,15.3-28.6,34-28.6
			c5.2,0,10.4,1,15,2.9C64.5,1.2,67.7,0,72,0l5.7,0c0.7,0,1.4,0.4,1.7,1c0.4,0.6,0.4,1.3,0.1,2l-4.8,9.2c1.8,2.1,3.3,4.3,4.5,6.7
			c0.6,1.2,1.7,2,2.9,2h3.5c2.6,0,4.6,2.1,4.6,4.6v7.6c0,2.6-2.1,4.6-4.6,4.6h-3.5c-1.2,0-2.3,0.8-2.9,2c-1.8,3.9-4.7,7.5-8.4,10.4
			c-0.9,0.7-1.4,1.8-1.4,2.9v7.2c0,1.1-0.9,2-2,2h-9c-1.1,0-2-0.9-2-2v-3.4c-5.9,1.4-12.3,1.3-18.2-0.1v3.5c0,1.1-0.9,2-2,2h-9
			C26,62.3,25.1,61.4,25.1,60.3z M34.1,55.3c0-1.6,1.3-2.8,2.8-2.8c0.3,0,0.5,0,0.8,0.1c6,1.7,12.8,1.7,19,0.1
			c0.2-0.1,0.5-0.1,0.7-0.1c1.6,0,2.9,1.3,2.9,2.8v2.9h5v-5.2c0-2.4,1.1-4.6,2.9-6.1c3.2-2.5,5.7-5.6,7.2-8.9
			c1.2-2.7,3.7-4.3,6.5-4.3h3.5c0.4,0,0.6-0.3,0.6-0.6v-7.6c0-0.3-0.3-0.6-0.6-0.6h-3.5c-2.8,0-5.3-1.7-6.5-4.3
			c-1-2.1-2.3-4-3.9-5.8c-1.1-1.2-1.3-2.9-0.6-4.2L74.3,4H72c-3.6,0-5.9,1-7.2,3.2c-0.5,0.9-1.6,1.3-2.6,0.8
			c-4.5-2.1-9.7-3.2-14.9-3.2c-16.5,0-30,11-30,24.6c0,6.6,3.2,12.9,9,17.5c1.8,1.5,2.8,3.6,2.8,6v5.5h5
			C34.1,58.3,34.1,55.3,34.1,55.3z"/>
	</g>
</g>
</svg>
